<svg xmlns="http://www.w3.org/2000/svg" viewBox="0 0 1200 160" width="100%">
  <defs>
    <linearGradient id="bg" x1="0%" y1="0%" x2="100%" y2="100%">
      <stop offset="0%" stop-color="#fafaf9"/>
      <stop offset="100%" stop-color="#f5f5f4"/>
    </linearGradient>
    <linearGradient id="accent" x1="0%" y1="0%" x2="100%" y2="0%">
      <stop offset="0%" stop-color="#d97706"/>
      <stop offset="100%" stop-color="#f59e0b"/>
    </linearGradient>
  </defs>
  <rect width="1200" height="160" fill="url(#bg)" rx="16"/>
  <rect x="30" y="30" width="32" height="3" rx="1.5" fill="url(#accent)"/>
  <text x="78" y="35" font-family="-apple-system,BlinkMacSystemFont,PingFang SC,sans-serif" font-size="22" font-weight="600" fill="#1c1917">📦 开源项目</text>

  <!-- Project card inner -->
  <rect x="40" y="65" width="1120" height="72" rx="12" fill="#292524"/>
  <!-- Bookmark icon in amber/gold -->
  <rect x="70" y="78" width="16" height="20" rx="3" fill="#d97706"/>
  <polygon points="78,98 78,88 86,88 86,98 82,94 78,98" fill="#fef3c7"/>
  <rect x="92" y="81" width="28" height="2" rx="1" fill="#f59e0b" opacity="0.6"/>
  <rect x="92" y="88" width="22" height="2" rx="1" fill="#f59e0b" opacity="0.4"/>
  <rect x="92" y="95" width="25" height="2" rx="1" fill="#f59e0b" opacity="0.3"/>
  <text x="132" y="95" font-family="-apple-system,BlinkMacSystemFont,PingFang SC,sans-serif" font-size="17" font-weight="600" fill="#f59e0b">粽子书签工具</text>
  <text x="132" y="118" font-family="-apple-system,BlinkMacSystemFont,PingFang SC,sans-serif" font-size="13" fill="#a8a29e">Chrome 扩展 · 书签 WebDAV 同步 · AI 自动分类 · 摘要管理</text>
</svg>
